# xmcd
#
# Track frame offsets: 
#        180
#        15722
#        30007
#        47243
#        68545
#        91464
#        118581
#        139216
#        155639
#        176054
#        190377
#        215872
#        234885
#        251310
#
# Disc length: 3588 seconds
#
# Revision: 2
# Processed by: cddbd v1.5.2PL0 Copyright (c) Steve Scherf et al.
# Submitted via: ExactAudioCopyFreeDBPlugin 1.0
#
DISCID=bb0e020e
DTITLE=Various Artist - Chesky Records - Women of Song
DYEAR=1900
DGENRE=
TTITLE0=Ana Caram - Samba de Verao
TTITLE1=Christy Baron - Get to Get You Into My life
TTITLE2=Sara K. - If I Could Sing Your Blues
TTITLE3=Badi Assad - Num Pagode Em Planaltina
TTITLE4=Christy Baron - Round Midnight
TTITLE5=Sara K. - Brick House
TTITLE6=Ana Caram - Sonhando
TTITLE7=Rebecca Pidgeon - Spanish Harlem
TTITLE8=Sara K. - What You Don't Know
TTITLE9=Badi Assad - Batucada
TTITLE10=Chisty Baron - Columbus
TTITLE11=Ana Caram - A Voz De Morro
TTITLE12=Rebecca Pidgion - The Word Around Town
TTITLE13=Badi Assad - Quase Um Funk P'ra Badi
EXTD=Badi Assad, Ana Caram, Sara K., Christy Baron, Rebecca Pidgeon
EXTT0=
EXTT1=
EXTT2=
EXTT3=
EXTT4=
EXTT5=
EXTT6=
EXTT7=
EXTT8=
EXTT9=
EXTT10=
EXTT11=
EXTT12=
EXTT13=
PLAYORDER=
